<mxfile host="Electron" modified="2024-10-26T13:51:56.083Z" agent="Mozilla/5.0 (Windows NT 10.0; Win64; x64) AppleWebKit/537.36 (KHTML, like Gecko) draw.io/23.1.5 Chrome/120.0.6099.109 Electron/28.1.0 Safari/537.36" etag="B1RFWrIIn55rlZsAU2nL" version="23.1.5" type="device">
  <diagram name="Страница — 1" id="cLjbmlqy-ygLtGLeqxRx">
    <mxGraphModel dx="2700" dy="1710" grid="1" gridSize="10" guides="1" tooltips="1" connect="1" arrows="1" fold="1" page="1" pageScale="1" pageWidth="827" pageHeight="1169" math="0" shadow="0">
      <root>
        <mxCell id="0" />
        <mxCell id="1" parent="0" />
        <mxCell id="_czjdlP7NAZFudH9wTXd-5" value="&lt;b&gt;Пользователь&lt;/b&gt;" style="swimlane;childLayout=stackLayout;horizontal=1;startSize=30;horizontalStack=0;rounded=1;fontSize=14;fontStyle=0;strokeWidth=2;resizeParent=0;resizeLast=1;shadow=0;dashed=0;align=center;arcSize=4;whiteSpace=wrap;html=1;" parent="1" vertex="1">
          <mxGeometry x="-720" y="530" width="110" height="140" as="geometry" />
        </mxCell>
        <mxCell id="_czjdlP7NAZFudH9wTXd-6" value="&lt;font style=&quot;font-size: 14px;&quot;&gt;&lt;b&gt;* Логин&lt;br&gt;&lt;/b&gt;Пароль&lt;br&gt;ФИО&lt;br&gt;Дата рождения&lt;br&gt;Почта&lt;br&gt;Телефон&lt;/font&gt;" style="align=left;strokeColor=none;fillColor=none;spacingLeft=4;fontSize=12;verticalAlign=top;resizable=0;rotatable=0;part=1;html=1;" parent="_czjdlP7NAZFudH9wTXd-5" vertex="1">
          <mxGeometry y="30" width="110" height="110" as="geometry" />
        </mxCell>
        <mxCell id="_czjdlP7NAZFudH9wTXd-8" value="&lt;b&gt;Модель самолета&lt;/b&gt;" style="swimlane;childLayout=stackLayout;horizontal=1;startSize=50;horizontalStack=0;rounded=1;fontSize=14;fontStyle=0;strokeWidth=2;resizeParent=0;resizeLast=1;shadow=0;dashed=0;align=center;arcSize=4;whiteSpace=wrap;html=1;" parent="1" vertex="1">
          <mxGeometry x="-960" y="240" width="110" height="130" as="geometry" />
        </mxCell>
        <mxCell id="_czjdlP7NAZFudH9wTXd-9" value="&lt;div style=&quot;font-size: 15px;&quot;&gt;&lt;b style=&quot;background-color: initial; font-size: 14px;&quot;&gt;* Название&lt;/b&gt;&lt;/div&gt;&lt;font style=&quot;font-size: 14px;&quot;&gt;&lt;div style=&quot;&quot;&gt;&lt;span style=&quot;background-color: initial;&quot;&gt;Эконом класс&lt;/span&gt;&lt;/div&gt;&lt;div style=&quot;&quot;&gt;&lt;span style=&quot;background-color: initial;&quot;&gt;Бизнесс класс&lt;/span&gt;&lt;/div&gt;&lt;div style=&quot;&quot;&gt;&lt;span style=&quot;background-color: initial;&quot;&gt;Первый класс&lt;/span&gt;&lt;/div&gt;&lt;/font&gt;" style="align=left;strokeColor=none;fillColor=none;spacingLeft=4;fontSize=12;verticalAlign=top;resizable=0;rotatable=0;part=1;html=1;" parent="_czjdlP7NAZFudH9wTXd-8" vertex="1">
          <mxGeometry y="50" width="110" height="80" as="geometry" />
        </mxCell>
        <mxCell id="_czjdlP7NAZFudH9wTXd-10" value="&lt;b&gt;Самолеты в парке&lt;/b&gt;" style="swimlane;childLayout=stackLayout;horizontal=1;startSize=33;horizontalStack=0;rounded=1;fontSize=14;fontStyle=0;strokeWidth=2;resizeParent=0;resizeLast=1;shadow=0;dashed=0;align=center;arcSize=4;whiteSpace=wrap;html=1;" parent="1" vertex="1">
          <mxGeometry x="-770" y="240" width="140" height="67.5" as="geometry" />
        </mxCell>
        <mxCell id="_czjdlP7NAZFudH9wTXd-11" value="&lt;font style=&quot;font-size: 14px;&quot;&gt;&lt;b&gt;* Серийный номер&lt;br&gt;&lt;/b&gt;&lt;br&gt;&lt;/font&gt;" style="align=left;strokeColor=none;fillColor=none;spacingLeft=4;fontSize=12;verticalAlign=top;resizable=0;rotatable=0;part=1;html=1;" parent="_czjdlP7NAZFudH9wTXd-10" vertex="1">
          <mxGeometry y="33" width="140" height="34.5" as="geometry" />
        </mxCell>
        <mxCell id="AS12uEGzcnYFTBffjhOc-1" value="&lt;b&gt;Страна&lt;/b&gt;" style="swimlane;childLayout=stackLayout;horizontal=1;startSize=30;horizontalStack=0;rounded=1;fontSize=14;fontStyle=0;strokeWidth=2;resizeParent=0;resizeLast=1;shadow=0;dashed=0;align=center;arcSize=4;whiteSpace=wrap;html=1;" vertex="1" parent="1">
          <mxGeometry x="-790" y="80" width="110" height="90" as="geometry" />
        </mxCell>
        <mxCell id="AS12uEGzcnYFTBffjhOc-2" value="&lt;font style=&quot;font-size: 14px;&quot;&gt;&lt;b&gt;* Название&lt;br&gt;&lt;/b&gt;Необходимость&lt;br&gt;визы&lt;br&gt;&lt;/font&gt;" style="align=left;strokeColor=none;fillColor=none;spacingLeft=4;fontSize=12;verticalAlign=top;resizable=0;rotatable=0;part=1;html=1;" vertex="1" parent="AS12uEGzcnYFTBffjhOc-1">
          <mxGeometry y="30" width="110" height="60" as="geometry" />
        </mxCell>
        <mxCell id="AS12uEGzcnYFTBffjhOc-3" value="&lt;b&gt;Город&lt;/b&gt;" style="swimlane;childLayout=stackLayout;horizontal=1;startSize=30;horizontalStack=0;rounded=1;fontSize=14;fontStyle=0;strokeWidth=2;resizeParent=0;resizeLast=1;shadow=0;dashed=0;align=center;arcSize=4;whiteSpace=wrap;html=1;" vertex="1" parent="1">
          <mxGeometry x="-627" y="80" width="85" height="60" as="geometry" />
        </mxCell>
        <mxCell id="AS12uEGzcnYFTBffjhOc-4" value="&lt;font style=&quot;font-size: 14px;&quot;&gt;&lt;b&gt;* Название&lt;br&gt;&lt;/b&gt;&lt;br&gt;&lt;/font&gt;" style="align=left;strokeColor=none;fillColor=none;spacingLeft=4;fontSize=12;verticalAlign=top;resizable=0;rotatable=0;part=1;html=1;" vertex="1" parent="AS12uEGzcnYFTBffjhOc-3">
          <mxGeometry y="30" width="85" height="30" as="geometry" />
        </mxCell>
        <mxCell id="AS12uEGzcnYFTBffjhOc-5" value="&lt;b&gt;Аэропорт&lt;/b&gt;" style="swimlane;childLayout=stackLayout;horizontal=1;startSize=29;horizontalStack=0;rounded=1;fontSize=14;fontStyle=0;strokeWidth=2;resizeParent=0;resizeLast=1;shadow=0;dashed=0;align=center;arcSize=4;whiteSpace=wrap;html=1;" vertex="1" parent="1">
          <mxGeometry x="-500" y="80" width="100" height="80" as="geometry" />
        </mxCell>
        <mxCell id="AS12uEGzcnYFTBffjhOc-6" value="&lt;font style=&quot;font-size: 14px;&quot;&gt;&lt;b&gt;* Код&lt;br&gt;&lt;/b&gt;Название&lt;br&gt;&lt;br&gt;&lt;/font&gt;" style="align=left;strokeColor=none;fillColor=none;spacingLeft=4;fontSize=12;verticalAlign=top;resizable=0;rotatable=0;part=1;html=1;" vertex="1" parent="AS12uEGzcnYFTBffjhOc-5">
          <mxGeometry y="29" width="100" height="51" as="geometry" />
        </mxCell>
        <mxCell id="AS12uEGzcnYFTBffjhOc-7" value="&lt;b&gt;Рейс&lt;/b&gt;" style="swimlane;childLayout=stackLayout;horizontal=1;startSize=30;horizontalStack=0;rounded=1;fontSize=14;fontStyle=0;strokeWidth=2;resizeParent=0;resizeLast=1;shadow=0;dashed=0;align=center;arcSize=4;whiteSpace=wrap;html=1;" vertex="1" parent="1">
          <mxGeometry x="-560" y="240" width="160" height="210" as="geometry" />
        </mxCell>
        <mxCell id="AS12uEGzcnYFTBffjhOc-8" value="&lt;font style=&quot;font-size: 14px;&quot;&gt;&lt;b&gt;* Номер&lt;/b&gt;&lt;br&gt;Дата и время вылета&lt;br&gt;Дата и время прилета&lt;br&gt;Статус&lt;br&gt;Эконом класс&lt;br&gt;Бизнесс класс&lt;br&gt;Первый класс&lt;br&gt;Цена эконом класса&lt;br&gt;Цена бизнесс класса&lt;br&gt;Цена первого класса&lt;br&gt;&lt;/font&gt;" style="align=left;strokeColor=none;fillColor=none;spacingLeft=4;fontSize=12;verticalAlign=top;resizable=0;rotatable=0;part=1;html=1;" vertex="1" parent="AS12uEGzcnYFTBffjhOc-7">
          <mxGeometry y="30" width="160" height="180" as="geometry" />
        </mxCell>
        <mxCell id="AS12uEGzcnYFTBffjhOc-9" value="&lt;b&gt;Бронь&lt;/b&gt;" style="swimlane;childLayout=stackLayout;horizontal=1;startSize=30;horizontalStack=0;rounded=1;fontSize=14;fontStyle=0;strokeWidth=2;resizeParent=0;resizeLast=1;shadow=0;dashed=0;align=center;arcSize=4;whiteSpace=wrap;html=1;" vertex="1" parent="1">
          <mxGeometry x="-540" y="530" width="120" height="80" as="geometry" />
        </mxCell>
        <mxCell id="AS12uEGzcnYFTBffjhOc-10" value="&lt;font style=&quot;font-size: 14px;&quot;&gt;Тип билета&lt;br&gt;Статус оплаты&lt;br&gt;&lt;/font&gt;" style="align=left;strokeColor=none;fillColor=none;spacingLeft=4;fontSize=12;verticalAlign=top;resizable=0;rotatable=0;part=1;html=1;" vertex="1" parent="AS12uEGzcnYFTBffjhOc-9">
          <mxGeometry y="30" width="120" height="50" as="geometry" />
        </mxCell>
        <mxCell id="AS12uEGzcnYFTBffjhOc-27" value="" style="edgeStyle=orthogonalEdgeStyle;fontSize=12;html=1;endArrow=ERmany;rounded=0;exitX=1;exitY=0;exitDx=0;exitDy=0;entryX=0;entryY=0;entryDx=0;entryDy=0;" edge="1" parent="1" source="AS12uEGzcnYFTBffjhOc-2" target="AS12uEGzcnYFTBffjhOc-4">
          <mxGeometry width="100" height="100" relative="1" as="geometry">
            <mxPoint x="-630" y="200" as="sourcePoint" />
            <mxPoint x="-530" y="200" as="targetPoint" />
            <Array as="points">
              <mxPoint x="-630" y="110" />
              <mxPoint x="-630" y="110" />
            </Array>
          </mxGeometry>
        </mxCell>
        <mxCell id="AS12uEGzcnYFTBffjhOc-28" value="" style="edgeStyle=orthogonalEdgeStyle;fontSize=12;html=1;endArrow=ERmany;rounded=0;exitX=1;exitY=0.5;exitDx=0;exitDy=0;entryX=0;entryY=0;entryDx=0;entryDy=0;" edge="1" parent="1" source="AS12uEGzcnYFTBffjhOc-3" target="AS12uEGzcnYFTBffjhOc-6">
          <mxGeometry width="100" height="100" relative="1" as="geometry">
            <mxPoint x="-515" y="190" as="sourcePoint" />
            <mxPoint x="-435" y="190" as="targetPoint" />
            <Array as="points">
              <mxPoint x="-500" y="110" />
            </Array>
          </mxGeometry>
        </mxCell>
        <mxCell id="AS12uEGzcnYFTBffjhOc-33" value="" style="edgeStyle=orthogonalEdgeStyle;fontSize=12;html=1;endArrow=ERmany;rounded=0;exitX=0.981;exitY=-0.004;exitDx=0;exitDy=0;exitPerimeter=0;entryX=0.006;entryY=0.488;entryDx=0;entryDy=0;entryPerimeter=0;" edge="1" parent="1" source="_czjdlP7NAZFudH9wTXd-9" target="_czjdlP7NAZFudH9wTXd-11">
          <mxGeometry width="100" height="100" relative="1" as="geometry">
            <mxPoint x="-850" y="290" as="sourcePoint" />
            <mxPoint x="-730" y="290" as="targetPoint" />
            <Array as="points">
              <mxPoint x="-850" y="290" />
            </Array>
          </mxGeometry>
        </mxCell>
        <mxCell id="AS12uEGzcnYFTBffjhOc-35" value="" style="edgeStyle=orthogonalEdgeStyle;fontSize=12;html=1;endArrow=ERmany;rounded=0;exitX=1.012;exitY=0.49;exitDx=0;exitDy=0;exitPerimeter=0;entryX=0.005;entryY=0.02;entryDx=0;entryDy=0;entryPerimeter=0;" edge="1" parent="1" source="_czjdlP7NAZFudH9wTXd-10">
          <mxGeometry width="100" height="100" relative="1" as="geometry">
            <mxPoint x="-630.2399999999998" y="274.004" as="sourcePoint" />
            <mxPoint x="-560" y="273.49999999999994" as="targetPoint" />
            <Array as="points">
              <mxPoint x="-632" y="273" />
            </Array>
          </mxGeometry>
        </mxCell>
        <mxCell id="AS12uEGzcnYFTBffjhOc-36" value="" style="edgeStyle=orthogonalEdgeStyle;fontSize=12;html=1;endArrow=ERmany;rounded=0;exitX=1;exitY=0;exitDx=0;exitDy=0;entryX=1;entryY=0;entryDx=0;entryDy=0;" edge="1" parent="1" source="AS12uEGzcnYFTBffjhOc-6" target="AS12uEGzcnYFTBffjhOc-8">
          <mxGeometry width="100" height="100" relative="1" as="geometry">
            <mxPoint x="-360.0000000000001" y="190.00000000000003" as="sourcePoint" />
            <mxPoint x="-277.88" y="190.28" as="targetPoint" />
            <Array as="points">
              <mxPoint x="-400" y="120" />
              <mxPoint x="-320" y="120" />
              <mxPoint x="-320" y="270" />
            </Array>
          </mxGeometry>
        </mxCell>
        <mxCell id="AS12uEGzcnYFTBffjhOc-38" value="Место вылета" style="edgeLabel;html=1;align=center;verticalAlign=middle;resizable=0;points=[];" vertex="1" connectable="0" parent="AS12uEGzcnYFTBffjhOc-36">
          <mxGeometry x="0.7744" y="3" relative="1" as="geometry">
            <mxPoint x="4" y="-13" as="offset" />
          </mxGeometry>
        </mxCell>
        <mxCell id="AS12uEGzcnYFTBffjhOc-37" value="" style="edgeStyle=orthogonalEdgeStyle;fontSize=12;html=1;endArrow=ERmany;rounded=0;exitX=1;exitY=0;exitDx=0;exitDy=0;entryX=0.998;entryY=0.165;entryDx=0;entryDy=0;entryPerimeter=0;" edge="1" parent="1" target="AS12uEGzcnYFTBffjhOc-8">
          <mxGeometry width="100" height="100" relative="1" as="geometry">
            <mxPoint x="-400" y="100" as="sourcePoint" />
            <mxPoint x="-400" y="260" as="targetPoint" />
            <Array as="points">
              <mxPoint x="-290" y="100" />
              <mxPoint x="-290" y="300" />
            </Array>
          </mxGeometry>
        </mxCell>
        <mxCell id="AS12uEGzcnYFTBffjhOc-39" value="Место прилета" style="edgeLabel;html=1;align=center;verticalAlign=middle;resizable=0;points=[];" vertex="1" connectable="0" parent="AS12uEGzcnYFTBffjhOc-37">
          <mxGeometry x="0.7343" y="1" relative="1" as="geometry">
            <mxPoint x="-11" y="-11" as="offset" />
          </mxGeometry>
        </mxCell>
        <mxCell id="AS12uEGzcnYFTBffjhOc-41" style="edgeStyle=orthogonalEdgeStyle;rounded=0;orthogonalLoop=1;jettySize=auto;html=1;entryX=0;entryY=0.25;entryDx=0;entryDy=0;endArrow=ERmany;endFill=0;" edge="1" parent="1" source="_czjdlP7NAZFudH9wTXd-6" target="AS12uEGzcnYFTBffjhOc-10">
          <mxGeometry relative="1" as="geometry">
            <Array as="points">
              <mxPoint x="-597" y="573" />
            </Array>
          </mxGeometry>
        </mxCell>
        <mxCell id="AS12uEGzcnYFTBffjhOc-45" value="&lt;b&gt;&lt;font style=&quot;font-size: 17px;&quot;&gt;*&lt;/font&gt;&lt;/b&gt;" style="edgeLabel;html=1;align=center;verticalAlign=middle;resizable=0;points=[];labelBackgroundColor=none;" vertex="1" connectable="0" parent="AS12uEGzcnYFTBffjhOc-41">
          <mxGeometry x="0.2571" y="1" relative="1" as="geometry">
            <mxPoint x="16" y="-1" as="offset" />
          </mxGeometry>
        </mxCell>
        <mxCell id="AS12uEGzcnYFTBffjhOc-42" style="edgeStyle=orthogonalEdgeStyle;rounded=0;orthogonalLoop=1;jettySize=auto;html=1;entryX=0.5;entryY=0;entryDx=0;entryDy=0;endArrow=ERmany;endFill=0;" edge="1" parent="1" source="AS12uEGzcnYFTBffjhOc-8" target="AS12uEGzcnYFTBffjhOc-9">
          <mxGeometry relative="1" as="geometry" />
        </mxCell>
        <mxCell id="AS12uEGzcnYFTBffjhOc-43" value="*" style="edgeLabel;html=1;align=center;verticalAlign=top;resizable=0;points=[];fontSize=17;fontStyle=1;spacing=0;horizontal=1;labelPosition=center;verticalLabelPosition=bottom;labelBackgroundColor=none;" vertex="1" connectable="0" parent="AS12uEGzcnYFTBffjhOc-42">
          <mxGeometry x="0.5043" y="-2" relative="1" as="geometry">
            <mxPoint x="12" as="offset" />
          </mxGeometry>
        </mxCell>
        <mxCell id="AS12uEGzcnYFTBffjhOc-46" value="&lt;b&gt;Администратор&lt;/b&gt;" style="swimlane;childLayout=stackLayout;horizontal=1;startSize=30;horizontalStack=0;rounded=1;fontSize=14;fontStyle=0;strokeWidth=2;resizeParent=0;resizeLast=1;shadow=0;dashed=0;align=center;arcSize=4;whiteSpace=wrap;html=1;" vertex="1" parent="1">
          <mxGeometry x="-900" y="530" width="130" height="80" as="geometry" />
        </mxCell>
        <mxCell id="AS12uEGzcnYFTBffjhOc-47" value="&lt;div style=&quot;font-size: 15px;&quot;&gt;&lt;b style=&quot;background-color: initial; font-size: 14px;&quot;&gt;* Логин&lt;/b&gt;&lt;/div&gt;&lt;font style=&quot;font-size: 14px;&quot;&gt;&lt;div style=&quot;&quot;&gt;&lt;span style=&quot;background-color: initial;&quot;&gt;Пароль&lt;/span&gt;&lt;/div&gt;&lt;/font&gt;" style="align=left;strokeColor=none;fillColor=none;spacingLeft=4;fontSize=12;verticalAlign=top;resizable=0;rotatable=0;part=1;html=1;" vertex="1" parent="AS12uEGzcnYFTBffjhOc-46">
          <mxGeometry y="30" width="130" height="50" as="geometry" />
        </mxCell>
      </root>
    </mxGraphModel>
  </diagram>
</mxfile>
